 http://www.torrentday.com - Your Key To The Scene.

 
http://www.torrentday.com :  Clean RAR Scene Releases!


Enjoy =)

...................................NFO:....................................

.      *********** ****    ****      ***      ******** *********** ****    *** **********
           *+*     +*+*+* *+*+*+   *+* *+*   *+*    *+*    *+*     *+*+*   *+* *+*        
           +*+     +*+ +*+*+ +*+  +*+   +*+  +*+           +*+     *+*+*+  +*+ +*+        
           +$+     +$+  +*+  +$+ +$++*++$++* *$*           +$+     +$+ +*+ +$+ +$++*++$  
           +$+     +$+       +$+ +$+     +$+ +$+   +$+$    +$+     +$+  +$+$+$ +$+        
           $+$     $+$       $+$ $+$     $+$ $+$    $+$    $+$     $+$   $+$+$ $+$        
       $$$$$$$$$$$ $$$       $$$ $$$     $$$  $$$$$$$$ $$$$$$$$$$$ $$$    $$$$ $$$$$$$$$$     
                                                



                           Another Fine Release Brought to you from - IMAGiNE                   
                                           
********************************************************************************************************************                                
                               The Crazies TS  XViD V2 - IMAGiNE
********************************************************************************************************************

Ripper ...........: IMAGiNE                                        IMDB Rating.......:7.4/10                             
Video Codec.......: XVID                                         Release Date......:08/03/10
Audio Codec.......:MP3                                           Theatre Date......:26/02/10
Audio Bitrate.....:192                                              Runtime.......:1h 33mn
Subtitles.........:NIL                                                 Language..........:ENGLISH
Resolution...... 720 x 288                                      IMDb URL..........:http://www.imdb.com/title/tt0455407/


[color=yellow]DETAILS:[/color]

Video
ID                               : 0
Format                           : MPEG-4 Visual
Format profile                   : Advanced Simple@L5
Format settings, BVOP            : Yes
Format settings, QPel            : No
Format settings, GMC             : No warppoints
Format settings, Matrix          : Default (MPEG)
Muxing mode                      : Packed bitstream
Codec ID                         : XVID
Codec ID/Hint                    : XviD
Duration                         : 1h 33mn
Bit rate                         : 2 804 Kbps
Width                            : 720 pixels
Height                           : 288 pixels
Display aspect ratio             : 2.500
Frame rate                       : 23.976 fps
Resolution                       : 24 bits
Colorimetry                      : 4:2:0
Scan type                        : Progressive
Bits/(Pixel*Frame)               : 0.564
Stream size                      : 1.83 GiB (93%)
Writing library                  : XviD 1.2.1 (UTC 2008-12-04)

Audio
ID                               : 1
Format                           : MPEG Audio
Format version                   : Version 1
Format profile                   : Layer 3
Codec ID                         : 55
Codec ID/Hint                    : MP3
Duration                         : 1h 33mn
Bit rate mode                    : Constant
Bit rate                         : 192 Kbps
Channel(s)                       : 2 channels
Sampling rate                    : 48.0 KHz
Resolution                       : 16 bits
Stream size                      : 128 MiB (6%)
Alignment                        : Aligned on interleaves
Interleave, duration             : 42 ms (1.00 video frame)
Interleave, preload duration     : 504 ms


[color=yellow]NOTES:[/color]

IMAGiNE bringing you another release.....
Here we go again with our V2 of The crazies......this time its our video source but mux with some 
nice audio off Rx's release....thanks guys :)
The Audio hasn't just been remuxed we decided to redo the video from the source files again....this time making it
higher in bitrate for better quality and also filtered the video slightly different.

Our first TS:
[IMG]http://imagine.takagari.com/THE%20CRAZIES%20TS/vlcsnap-317097.png[/IMG]
This release:
[IMG]http://imagine.takagari.com/THE%20CRAZIES%20TS%20V2/vlcsnap-150772.png[/IMG]


[color=yellow]SCREENS:[/color]

[IMG]http://imagine.takagari.com/THE%20CRAZIES%20TS%20V2/vlcsnap-149097.png[/IMG]
[IMG]http://imagine.takagari.com/THE%20CRAZIES%20TS%20V2/vlcsnap-150616.png[/IMG]
[IMG]http://imagine.takagari.com/THE%20CRAZIES%20TS%20V2/vlcsnap-150772.png[/IMG]
[IMG]http://imagine.takagari.com/THE%20CRAZIES%20TS%20V2/vlcsnap-152029.png[/IMG]
[IMG]http://imagine.takagari.com/THE%20CRAZIES%20TS%20V2/vlcsnap-153882.png[/IMG]
[IMG]http://imagine.takagari.com/THE%20CRAZIES%20TS%20V2/vlcsnap-154625.png[/IMG]

Also look out for these soon + more ;-)

Cop Out (Taken from our encode)
[img]http://imagine.takagari.com/COP%20OUT%20CAM%20V2/snapshot20100307193425.jpg[/img]

Brooklyn Finest (Taken from our encode)

[color=yellow]GREETS:[/color]

FLAWL3SS,ViSiON,DEViSE,FUSiON,STG,SecretMyth,BirdFlu,ELEKTRI4KA
And to all the other p2p grps past and present 

Special thanks to Python-Lair for the server :)
And special thanks to supreme-speeds.com for the ripbox :)

[COLOR=RED]Looking for these,syncers,cammer,silver supplier.....Have anything to offer????......
Contact us imaginegroup@hushmail.com[/COLOR]